<?xml version="1.0" encoding="utf-8"?>
<!-- Generator: Adobe Illustrator 16.0.0, SVG Export Plug-In . SVG Version: 6.00 Build 0)  -->
<!DOCTYPE svg PUBLIC "-//W3C//DTD SVG 1.1//EN" "http://www.w3.org/Graphics/SVG/1.1/DTD/svg11.dtd">
<svg version="1.1" id="Layer_1" xmlns="http://www.w3.org/2000/svg" xmlns:xlink="http://www.w3.org/1999/xlink" x="0px" y="0px"
	 width="32px" height="64px" viewBox="0 0 32 64" enable-background="new 0 0 32 64" xml:space="preserve">
<g>
	<path fill="#1176BC" d="M20.159,7.058c0,0-3.063,0.001-3.666,0.001c-1.397,0-2.681,0.765-2.79,2.734v3.31h-1.861v2.873h1.941v8.918
		h3.611v-8.918h2.654v-2.873h-2.654v-2.203c0,0,0.028-0.78,0.793-0.779h1.972V7.058z"/>
	<circle fill="none" stroke="#1176BC" stroke-width="2" stroke-miterlimit="10" cx="16" cy="15.977" r="14.5"/>
</g>
<g>
	<path fill="#717373" d="M20.158,39.071c0,0-3.063,0.001-3.666,0.001c-1.396,0-2.681,0.765-2.791,2.734v3.31h-1.86v2.873h1.942
		v8.918h3.61v-8.918h2.654v-2.873h-2.654v-2.202c0,0,0.028-0.78,0.795-0.779h1.97V39.071z"/>
	<circle fill="none" stroke="#717373" stroke-width="2" stroke-miterlimit="10" cx="16" cy="47.989" r="14.5"/>
</g>
</svg>
