<?xml version="1.0" encoding="utf-8"?>
<!-- Generator: Adobe Illustrator 16.0.0, SVG Export Plug-In . SVG Version: 6.00 Build 0)  -->
<!DOCTYPE svg PUBLIC "-//W3C//DTD SVG 1.1//EN" "http://www.w3.org/Graphics/SVG/1.1/DTD/svg11.dtd">
<svg version="1.1" id="Layer_1" xmlns="http://www.w3.org/2000/svg" xmlns:xlink="http://www.w3.org/1999/xlink" x="0px" y="0px"
	 width="64px" height="64px" viewBox="0 0 64 64" enable-background="new 0 0 64 64" xml:space="preserve">
<path fill="#09AACC" d="M38.366,34.833c0,3.478-2.818,6.296-6.296,6.296c-3.477,0-6.296-2.818-6.296-6.296s2.819-6.297,6.296-6.297
	C35.548,28.536,38.366,31.355,38.366,34.833z M52.563,45.466c0.146,2.169-1.959,4.337-4.197,4.337c-13.432,0-28.471-0.001-32.599,0
	c-2.238,0-4.477-1.889-4.477-4.057c0-4.338,0-18.398,0-21.826c0.35-2.519,2.309-4.127,4.617-4.337c0.914,0,3.066,0,5.85,0
	c0.402-1.269,0.804-2.226,1.146-3.008c0.665-1.225,1.854-2.309,2.868-2.379c1.994,0,10.039,0.011,12.172,0
	c1.749-0.008,2.846,1.649,3.148,2.309c0.306,0.676,0.899,2.144,1.274,3.078c2.712,0,4.772,0,5.581,0
	c2.868,0,4.687,2.868,4.617,4.058C52.602,25.603,52.873,37.632,52.563,45.466z M41.725,34.833c0-5.332-4.322-9.654-9.655-9.654
	c-5.332,0-9.654,4.322-9.654,9.654c0,5.331,4.322,9.654,9.654,9.654C37.402,44.487,41.725,40.164,41.725,34.833z M62.5,32
	c0,16.844-13.655,30.5-30.5,30.5S1.5,48.844,1.5,32C1.5,15.155,15.155,1.5,32,1.5S62.5,15.155,62.5,32z M61.068,32
	C61.068,15.946,48.054,2.932,32,2.932S2.932,15.946,2.932,32c0,16.053,13.014,29.067,29.068,29.067S61.068,48.053,61.068,32z"/>
</svg>
