<?xml version="1.0" encoding="utf-8"?>
<!-- Generator: Adobe Illustrator 16.0.0, SVG Export Plug-In . SVG Version: 6.00 Build 0)  -->
<!DOCTYPE svg PUBLIC "-//W3C//DTD SVG 1.1//EN" "http://www.w3.org/Graphics/SVG/1.1/DTD/svg11.dtd">
<svg version="1.1" id="Layer_1" xmlns="http://www.w3.org/2000/svg" xmlns:xlink="http://www.w3.org/1999/xlink" x="0px" y="0px"
	 width="64px" height="64px" viewBox="0 0 64 64" enable-background="new 0 0 64 64" xml:space="preserve">
<path fill="#09AACC" d="M56.688,33.322c-1.826,0.92-11.619,5.639-13.813,6.301c-1.041-1.085-0.835-2.803,0-3.506
	c1.76-1.33,9.402-3.118,9.879-4.008c-0.092-0.688-8.589-3.705-9.879-4.23c-1.851-0.7-0.836-3.298,0-3.52
	c2.181,0.611,12.452,5.554,13.813,6.566C57.348,31.417,57.711,32.543,56.688,33.322z M34.911,19.685
	c-0.643,0.611-10.584,24.183-10.293,24.729c0.291,0.545,3.581,0.4,4.171,0c0.59-0.401,10.673-24.131,10.338-24.729
	C38.791,19.086,35.554,19.073,34.911,19.685z M21.126,27.879c1.851-0.7,0.835-3.298,0-3.52c-2.181,0.611-12.453,5.554-13.814,6.566
	c-0.66,0.491-1.022,1.617,0,2.396c1.826,0.92,11.62,5.639,13.814,6.301c1.041-1.085,0.834-2.803,0-3.506
	c-1.76-1.33-9.403-3.118-9.879-4.008C11.338,31.422,19.835,28.405,21.126,27.879z M62.5,32c0,16.845-13.655,30.5-30.5,30.5
	S1.5,48.845,1.5,32C1.5,15.156,15.155,1.5,32,1.5S62.5,15.156,62.5,32z M61.283,32c0-16.172-13.11-29.283-29.283-29.283
	S2.717,15.828,2.717,32c0,16.172,13.11,29.283,29.283,29.283S61.283,48.172,61.283,32z"/>
</svg>
