<?xml version="1.0" encoding="utf-8"?>
<!-- Generator: Adobe Illustrator 16.0.0, SVG Export Plug-In . SVG Version: 6.00 Build 0)  -->
<!DOCTYPE svg PUBLIC "-//W3C//DTD SVG 1.1//EN" "http://www.w3.org/Graphics/SVG/1.1/DTD/svg11.dtd">
<svg version="1.1" id="Layer_1" xmlns="http://www.w3.org/2000/svg" xmlns:xlink="http://www.w3.org/1999/xlink" x="0px" y="0px"
	 width="64px" height="64px" viewBox="0 0 64 64" enable-background="new 0 0 64 64" xml:space="preserve">
<path fill="#09AACC" d="M32.001,23.051c-4.938,0-8.939,4-8.939,8.94c0,4.936,4.001,8.937,8.939,8.937
	c4.936,0,8.937-4.001,8.937-8.937C40.938,27.052,36.937,23.051,32.001,23.051z M32.001,38.373c-3.524,0-6.382-2.857-6.382-6.382
	c0-3.528,2.857-6.382,6.382-6.382c3.525,0,6.382,2.854,6.382,6.382C38.383,35.516,35.526,38.373,32.001,38.373z M32.001,16.822
	c-11.262,0-21.095,6.104-26.386,15.179c5.291,9.076,15.124,15.176,26.386,15.176c11.263,0,21.093-6.101,26.387-15.176
	C53.094,22.926,43.264,16.822,32.001,16.822z M32.001,43.201c-6.193,0-11.213-5.02-11.213-11.21c0-6.194,5.02-11.213,11.213-11.213
	c6.191,0,11.21,5.019,11.21,11.213C43.211,38.182,38.192,43.201,32.001,43.201z M32.001,1.5C15.157,1.5,1.5,15.157,1.5,32.001
	C1.5,48.847,15.157,62.5,32.001,62.5C48.846,62.5,62.5,48.847,62.5,32.001C62.5,15.157,48.846,1.5,32.001,1.5z M32.001,61.109
	c-16.076,0-29.11-13.031-29.11-29.108c0-16.076,13.034-29.111,29.11-29.111c16.077,0,29.108,13.035,29.108,29.111
	C61.109,48.078,48.078,61.109,32.001,61.109z"/>
</svg>
