<?xml version="1.0" encoding="utf-8"?>
<!-- Generator: Adobe Illustrator 16.0.0, SVG Export Plug-In . SVG Version: 6.00 Build 0)  -->
<!DOCTYPE svg PUBLIC "-//W3C//DTD SVG 1.1//EN" "http://www.w3.org/Graphics/SVG/1.1/DTD/svg11.dtd">
<svg version="1.1" id="Layer_1" xmlns="http://www.w3.org/2000/svg" xmlns:xlink="http://www.w3.org/1999/xlink" x="0px" y="0px"
	 width="224px" height="64px" viewBox="0 0 224 64" enable-background="new 0 0 224 64" xml:space="preserve">
<g>
	<path fill="#717373" d="M20.658,7.582c0,0-3.063,0.001-3.666,0.001c-1.396,0-2.681,0.765-2.79,2.734v3.31h-1.86V16.5h1.941v8.918
		h3.611V16.5h2.654v-2.873h-2.654v-2.203c0,0,0.027-0.779,0.793-0.778h1.971V7.582z"/>
	<circle fill="none" stroke="#717373" stroke-width="2" stroke-miterlimit="10" cx="16.5" cy="16.5" r="14.5"/>
</g>
<g>
	<path fill="#717373" d="M42.39,10.659c-0.006,0.63-0.207-2.653,1.99-2.653c2.146,0,2.142,2.409,2.146,2.653c0,0.547,0,1.86,0,1.86
		s6.025,0,6.361,0c0.205,0.051,1.307,0.623,1.313,2.186c0.007,1.563-1.054,2.137-1.313,2.137c-0.258,0-6.413,0-6.413,0v2.79
		c0,0,0.3,1.344,1.448,1.368c1.448,0.03,4.92,0,5.12,0c0,0,1.241,0.191,1.241,2.052c0,1.615-1.078,1.915-1.241,1.943
		c-0.388,0-5.638,0-6.206,0c-0.646,0-4.447-0.752-4.447-5.746C42.39,14.298,42.404,10.439,42.39,10.659z"/>
	<circle fill="none" stroke="#717373" stroke-width="2" stroke-miterlimit="10" cx="48.333" cy="16.5" r="14.5"/>
</g>
<g>
	<circle fill="none" stroke="#717373" stroke-width="2" stroke-miterlimit="10" cx="80.167" cy="16.5" r="14.5"/>
	<path fill="none" stroke="#717373" stroke-miterlimit="10" d="M88.016,18.374c0.121-0.555,0.188-1.129,0.188-1.72
		c0-4.396-3.564-7.961-7.961-7.961c-0.492,0-0.972,0.047-1.439,0.132c-0.713-0.475-1.568-0.752-2.489-0.752
		c-2.483,0-4.497,2.014-4.497,4.497c0,0.856,0.245,1.655,0.66,2.337c-0.126,0.563-0.195,1.146-0.195,1.747
		c0,4.396,3.564,7.961,7.96,7.961c0.592,0,1.166-0.066,1.72-0.189c0.616,0.318,1.315,0.501,2.056,0.501
		c2.484,0,4.498-2.014,4.498-4.497C88.516,19.688,88.333,18.99,88.016,18.374z"/>
	<path fill="#717373" d="M76.142,14.141c-0.056-0.694,0.524-2.643,3.575-2.812c0,0,3.29-0.313,4.263,1.975
		c0.164,0.411,0.021,1.129-0.494,1.346c0,0-0.818,0.393-1.346-0.448c-0.551-1.021-0.932-1.492-2.49-1.369
		c-0.527,0.034-1.436,0.393-1.458,1.145c0.011,0.37,0.37,0.998,2.017,1.256c0.337,0.067,3.375,0.501,4.018,1.997
		c0.673,1.704-0.12,3.274-1.428,3.896c-1.31,0.665-3.186,0.65-4.046,0.411c-1.66-0.389-2.856-1.683-2.871-2.782
		c0-0.852,1.137-1.293,1.705-0.65c0.77,0.8,0.411,1.66,2.131,2.02c0.957,0.187,2.856-0.262,2.558-1.66
		c-0.21-0.979-1.534-1.143-2.082-1.256c-1.441-0.217-2.532-0.756-2.943-1.01C76.463,15.688,76.164,14.836,76.142,14.141z"/>
</g>
<g>
	<circle fill="none" stroke="#717373" stroke-width="2" stroke-miterlimit="10" cx="112" cy="16.499" r="14.5"/>
	<g>
		<circle fill="#717373" cx="106.686" cy="21.821" r="2.01"/>
		<path fill="#717373" d="M114.527,23.966h-2.927c-0.143-3.843-3.25-6.929-7.106-7.027v-2.927
			C109.964,14.113,114.382,18.509,114.527,23.966z"/>
		<path fill="#717373" d="M119.508,23.966h-2.879c-0.145-6.619-5.505-11.955-12.135-12.056V9.033
			C112.713,9.135,119.361,15.758,119.508,23.966z"/>
	</g>
</g>
<g>
	<circle fill="none" stroke="#717373" stroke-width="2" stroke-miterlimit="10" cx="143.833" cy="16.501" r="14.5"/>
	<path fill="#717373" d="M150.448,11.063c-0.232-0.288-0.484-0.559-0.758-0.808c-1.529-1.438-3.59-2.321-5.859-2.321
		c-0.957,0-1.879,0.157-2.74,0.451c-0.449,0.149-0.883,0.336-1.293,0.557c-2.27,1.212-3.932,3.42-4.398,6.041
		c-0.074,0.407-0.119,0.823-0.131,1.248c-0.006,0.089-0.006,0.179-0.006,0.271c0,2.246,0.865,4.29,2.279,5.815
		c0.281,0.306,0.586,0.591,0.91,0.85c1.471,1.191,3.344,1.902,5.379,1.902c1.074,0,2.104-0.199,3.051-0.562
		c0.432-0.164,0.844-0.36,1.236-0.592c2.227-1.284,3.818-3.542,4.193-6.192c0.053-0.362,0.084-0.731,0.086-1.106
		c0.002-0.038,0.002-0.076,0.002-0.115C152.399,14.436,151.669,12.54,150.448,11.063z M151.009,16.347
		c-1.889-0.348-3.551-0.532-5.127-0.304c-0.18-0.401-0.363-0.799-0.553-1.191c1.496-0.657,2.873-1.569,4.146-2.784
		C150.413,13.25,150.978,14.729,151.009,16.347z M143.831,9.318c1.859,0,3.555,0.71,4.832,1.869c-1.293,1.1-2.596,1.896-3.939,2.467
		c-0.824-1.569-1.729-3.008-2.617-4.128C142.659,9.39,143.235,9.318,143.831,9.318z M140.745,10.017
		c0.945,1.177,1.852,2.595,2.66,4.125c-2.035,0.642-4.195,0.847-6.598,0.855C137.278,12.792,138.761,10.962,140.745,10.017z
		 M136.651,16.501c0-0.071,0-0.143,0.006-0.214c2.73,0.063,5.166-0.202,7.363-0.934c0.16,0.333,0.314,0.669,0.467,1.008
		c-1.988,0.636-3.914,2.071-6.096,4.826C137.308,19.93,136.651,18.292,136.651,16.501z M143.831,23.681
		c-1.686,0-3.236-0.58-4.461-1.555c1.934-2.199,3.305-3.798,5.654-4.484c0.75,1.869,1.322,3.754,1.646,5.453
		C145.8,23.473,144.837,23.681,143.831,23.681z M147.94,22.388c-0.266-1.51-0.807-3.264-1.508-5.027
		c1.217-0.149,2.676-0.11,4.508,0.146C150.659,19.525,149.54,21.272,147.94,22.388z"/>
</g>
<g>
	<circle fill="none" stroke="#717373" stroke-width="2" stroke-miterlimit="10" cx="175.667" cy="16.5" r="14.5"/>
	<g>
		<path fill="#717373" d="M177.088,17.879c-1.063-0.928-1.422-1.085-1.644-1.844c-0.054-0.474,0.293-0.782,0.671-1.141
			c1.488-1.081,2.205-2.313,1.979-3.688c-0.076-0.964-0.729-2.498-1.677-2.984c0.457,0,1.575-0.067,1.575-0.067l1.442-0.805
			c0,0-4.527,0-5.667,0c-2.33-0.033-3.923,1.195-4.628,2.516c-0.88,1.735-0.352,3.504,0.302,4.358
			c0.503,0.733,1.761,1.627,3.924,1.409c-0.077,0.387-0.201,0.683-0.201,1.207c0.051,0.733,0.843,1.064,0.604,1.299
			c-2.527,0.188-4.514,0.68-5.901,2.49c-1.04,1.811,0.041,3.482,0.838,4.023c1.178,0.805,3.567,1.484,6.984,0.537
			c1.876-0.563,3.486-2.486,3.277-4.259C178.911,19.698,178.155,18.717,177.088,17.879z M171.89,14.022
			c-0.637-0.737-1.354-2.661-1.073-3.99c0.135-0.658,0.726-1.84,1.911-1.878c0.902-0.012,1.469,0.188,2.113,0.973
			c0.297,0.386,1.178,1.605,1.14,3.521c0.025,0.775-0.125,1.542-1.441,2.146C173.453,15.247,172.51,14.819,171.89,14.022z
			 M177.214,22.904c-0.768,1.66-2.504,1.786-3.446,1.786c-1.659,0.009-3.647-0.629-4.058-2.318
			c-0.318-1.505,0.311-2.284,1.274-2.851c0.607-0.39,2.582-0.93,3.755-0.637c0.524,0.378,1.244,0.939,1.61,1.24
			C176.723,20.44,177.69,21.609,177.214,22.904z"/>
		<polygon fill="#717373" points="183.895,15.113 182.067,15.113 182.067,13.235 180.943,13.235 180.943,15.113 179.099,15.113 
			179.099,16.253 180.943,16.253 180.943,18.08 182.067,18.08 182.067,16.253 183.895,16.253 		"/>
	</g>
</g>
<g>
	<circle fill="none" stroke="#717373" stroke-width="2" stroke-miterlimit="10" cx="207.5" cy="16.5" r="14.5"/>
	<g>
		<path fill="none" stroke="#717373" stroke-width="3" stroke-miterlimit="10" d="M213.582,21.636
			c-2.016,0.309-9.791,0.379-11.955-0.054c-1.443-0.289-1.73-2.206-1.73-5.1c0-4.209,0.807-4.926,1.568-5.095
			c1.65-0.365,9.984-0.365,12.152,0c1.115,0.188,1.486,2.481,1.486,5.083C215.104,19.57,214.643,21.474,213.582,21.636z"/>
		<polygon fill="#717373" points="205.984,13.639 205.984,19.271 210.287,16.5 		"/>
	</g>
</g>
<g>
	<path fill="#1176BC" d="M20.658,38.582c0,0-3.063,0-3.665,0c-1.396,0-2.681,0.766-2.791,2.734v3.311h-1.86V47.5h1.942v8.918h3.61
		V47.5h2.654v-2.873h-2.654v-2.203c0,0,0.027-0.779,0.794-0.779h1.97V38.582z"/>
	<circle fill="none" stroke="#1176BC" stroke-width="2" stroke-miterlimit="10" cx="16.5" cy="47.5" r="14.5"/>
</g>
<g>
	<path fill="#26A9E1" d="M42.045,41.659c-0.005,0.629-0.219-2.653,2.106-2.653c2.271,0,2.265,2.408,2.271,2.653
		c0,0.546,0,1.86,0,1.86s6.374,0,6.73,0c0.216,0.051,1.381,0.623,1.388,2.186c0.007,1.562-1.115,2.137-1.388,2.137
		c-0.274,0-6.785,0-6.785,0v2.79c0,0,0.317,1.344,1.532,1.368c1.532,0.03,5.206,0,5.417,0c0,0,1.313,0.191,1.313,2.051
		c0,1.614-1.141,1.915-1.313,1.943c-0.41,0-5.963,0-6.565,0c-0.684,0-4.706-0.752-4.706-5.745
		C42.045,45.297,42.06,41.439,42.045,41.659z"/>
	<circle fill="none" stroke="#26A9E1" stroke-width="2" stroke-miterlimit="10" cx="48.333" cy="47.5" r="14.5"/>
</g>
<g>
	<circle fill="none" stroke="#1CB2E8" stroke-width="2" stroke-miterlimit="10" cx="80.167" cy="47.5" r="14.5"/>
	<g>
		<path fill="#FFFFFF" stroke="#1CB2E8" stroke-miterlimit="10" d="M88.016,49.374c0.122-0.555,0.188-1.129,0.188-1.721
			c0-4.396-3.564-7.96-7.961-7.96c-0.492,0-0.972,0.047-1.44,0.132c-0.713-0.475-1.568-0.753-2.489-0.753
			c-2.483,0-4.497,2.014-4.497,4.498c0,0.856,0.245,1.654,0.66,2.336c-0.126,0.563-0.195,1.147-0.195,1.747
			c0,4.397,3.564,7.961,7.961,7.961c0.591,0,1.166-0.066,1.719-0.188c0.617,0.318,1.315,0.501,2.057,0.501
			c2.483,0,4.497-2.014,4.497-4.497C88.516,50.688,88.333,49.99,88.016,49.374z"/>
		<path fill="#1CB2E8" d="M76.142,45.141c-0.056-0.695,0.524-2.643,3.575-2.812c0,0,3.29-0.313,4.262,1.974
			c0.165,0.412,0.022,1.129-0.494,1.346c0,0-0.819,0.393-1.346-0.447c-0.55-1.021-0.931-1.492-2.49-1.369
			c-0.527,0.033-1.436,0.393-1.458,1.145c0.011,0.369,0.37,0.998,2.017,1.256c0.336,0.066,3.374,0.5,4.017,1.996
			c0.673,1.705-0.12,3.275-1.428,3.896c-1.309,0.666-3.186,0.651-4.046,0.411c-1.66-0.389-2.856-1.682-2.871-2.781
			c0-0.853,1.137-1.294,1.705-0.65c0.77,0.8,0.411,1.66,2.131,2.02c0.957,0.187,2.856-0.263,2.557-1.661
			c-0.209-0.979-1.534-1.142-2.081-1.256c-1.441-0.217-2.533-0.755-2.944-1.01C76.463,46.688,76.164,45.836,76.142,45.141z"/>
	</g>
</g>
<g>
	<circle fill="none" stroke="#FBB042" stroke-width="2" stroke-miterlimit="10" cx="112" cy="47.499" r="14.5"/>
	<g>
		<circle fill="#FBB042" cx="106.685" cy="52.821" r="2.01"/>
		<path fill="#FBB042" d="M114.527,54.967H111.6c-0.143-3.843-3.25-6.929-7.106-7.027v-2.927
			C109.964,45.113,114.381,49.51,114.527,54.967z"/>
		<path fill="#FBB042" d="M119.507,54.967h-2.879c-0.145-6.619-5.505-11.955-12.135-12.057v-2.877
			C112.713,40.135,119.36,46.758,119.507,54.967z"/>
	</g>
</g>
<g>
	<circle fill="none" stroke="#F27995" stroke-width="2" stroke-miterlimit="10" cx="143.833" cy="47.499" r="14.5"/>
	<path fill="#F27995" d="M150.448,42.062c-0.231-0.288-0.484-0.56-0.758-0.808c-1.529-1.438-3.59-2.322-5.859-2.322
		c-0.957,0-1.878,0.158-2.74,0.452c-0.449,0.149-0.883,0.336-1.293,0.556c-2.27,1.213-3.931,3.42-4.398,6.041
		c-0.074,0.407-0.118,0.824-0.13,1.248c-0.006,0.09-0.006,0.179-0.006,0.271c0,2.247,0.864,4.291,2.279,5.815
		c0.281,0.307,0.585,0.592,0.91,0.851c1.47,1.191,3.343,1.901,5.378,1.901c1.075,0,2.104-0.199,3.052-0.562
		c0.431-0.163,0.844-0.359,1.235-0.592c2.227-1.283,3.819-3.542,4.193-6.192c0.054-0.362,0.084-0.73,0.087-1.105
		c0.002-0.039,0.002-0.077,0.002-0.116C152.4,45.434,151.67,43.538,150.448,42.062z M151.01,47.345
		c-1.89-0.348-3.551-0.532-5.128-0.303c-0.179-0.401-0.363-0.8-0.553-1.192c1.497-0.656,2.873-1.568,4.147-2.783
		C150.413,44.248,150.978,45.729,151.01,47.345z M143.831,40.316c1.859,0,3.556,0.711,4.832,1.87
		c-1.293,1.099-2.595,1.896-3.938,2.466c-0.825-1.568-1.729-3.008-2.618-4.127C142.659,40.389,143.236,40.316,143.831,40.316z
		 M140.746,41.016c0.945,1.176,1.852,2.594,2.659,4.125c-2.035,0.642-4.195,0.846-6.597,0.855
		C137.278,43.791,138.761,41.961,140.746,41.016z M136.651,47.499c0-0.071,0-0.143,0.006-0.213c2.73,0.062,5.167-0.203,7.364-0.935
		c0.16,0.334,0.314,0.669,0.467,1.008c-1.989,0.637-3.915,2.071-6.096,4.826C137.308,50.929,136.651,49.291,136.651,47.499z
		 M143.831,54.679c-1.686,0-3.236-0.58-4.461-1.554c1.935-2.199,3.305-3.798,5.655-4.484c0.749,1.869,1.322,3.753,1.646,5.453
		C145.8,54.471,144.838,54.679,143.831,54.679z M147.94,53.386c-0.265-1.509-0.806-3.263-1.507-5.027
		c1.216-0.148,2.675-0.11,4.508,0.146C150.66,50.524,149.54,52.271,147.94,53.386z"/>
</g>
<g>
	<circle fill="none" stroke="#D94835" stroke-width="2" stroke-miterlimit="10" cx="175.667" cy="47.499" r="14.5"/>
	<g>
		<path fill="#D94835" d="M177.088,48.879c-1.063-0.929-1.422-1.086-1.644-1.845c-0.054-0.474,0.293-0.782,0.671-1.14
			c1.488-1.082,2.205-2.314,1.979-3.689c-0.076-0.963-0.729-2.498-1.677-2.984c0.457,0,1.575-0.066,1.575-0.066l1.442-0.805
			c0,0-4.527,0-5.667,0c-2.33-0.033-3.923,1.194-4.628,2.515c-0.88,1.735-0.352,3.505,0.302,4.359
			c0.503,0.733,1.761,1.626,3.924,1.409c-0.077,0.387-0.201,0.683-0.201,1.206c0.051,0.733,0.843,1.065,0.604,1.3
			c-2.527,0.188-4.514,0.679-5.901,2.49c-1.04,1.811,0.041,3.482,0.838,4.023c1.178,0.805,3.567,1.483,6.984,0.536
			c1.876-0.562,3.486-2.485,3.277-4.258C178.911,50.697,178.155,49.717,177.088,48.879z M171.89,45.021
			c-0.637-0.736-1.354-2.661-1.073-3.989c0.135-0.658,0.726-1.841,1.911-1.878c0.902-0.013,1.469,0.188,2.113,0.973
			c0.297,0.385,1.178,1.605,1.14,3.521c0.025,0.776-0.125,1.543-1.441,2.146C173.453,46.246,172.51,45.818,171.89,45.021z
			 M177.214,53.904c-0.768,1.66-2.504,1.785-3.446,1.785c-1.659,0.01-3.647-0.628-4.058-2.317c-0.318-1.505,0.311-2.284,1.274-2.851
			c0.607-0.39,2.582-0.93,3.755-0.637c0.524,0.378,1.244,0.939,1.61,1.24C176.723,51.439,177.69,52.609,177.214,53.904z"/>
		<polygon fill="#D94835" points="183.895,46.112 182.067,46.112 182.067,44.234 180.943,44.234 180.943,46.112 179.099,46.112 
			179.099,47.253 180.943,47.253 180.943,49.08 182.067,49.08 182.067,47.253 183.895,47.253 		"/>
	</g>
</g>
<g>
	<circle fill="none" stroke="#E14E42" stroke-width="2" stroke-miterlimit="10" cx="207.5" cy="47.5" r="14.5"/>
	<g>
		<path fill="none" stroke="#E14E42" stroke-width="3" stroke-miterlimit="10" d="M213.583,52.636
			c-2.016,0.309-9.791,0.379-11.955-0.054c-1.443-0.289-1.731-2.207-1.731-5.1c0-4.209,0.807-4.926,1.569-5.094
			c1.649-0.366,9.984-0.366,12.152,0c1.114,0.188,1.485,2.48,1.485,5.082C215.104,50.57,214.644,52.474,213.583,52.636z"/>
		<polygon fill="#E14E42" points="205.984,44.639 205.984,50.271 210.287,47.5 		"/>
	</g>
</g>
</svg>
