<?xml version="1.0" encoding="utf-8"?>
<!-- Generator: Adobe Illustrator 16.0.0, SVG Export Plug-In . SVG Version: 6.00 Build 0)  -->
<!DOCTYPE svg PUBLIC "-//W3C//DTD SVG 1.1//EN" "http://www.w3.org/Graphics/SVG/1.1/DTD/svg11.dtd">
<svg version="1.1" id="Layer_1" xmlns="http://www.w3.org/2000/svg" xmlns:xlink="http://www.w3.org/1999/xlink" x="0px" y="0px"
	 width="64px" height="64px" viewBox="0 0 64 64" enable-background="new 0 0 64 64" xml:space="preserve">
<path fill="#09AACC" d="M46.21,13.346H17.789c-1.941,0-3.516,1.574-3.516,3.516v30.276c0,1.941,1.574,3.516,3.516,3.516H46.21
	c1.942,0,3.517-1.574,3.517-3.516V16.862C49.727,14.92,48.152,13.346,46.21,13.346z M25.41,15.958c0.729,0,1.319,0.59,1.319,1.319
	c0,0.728-0.591,1.318-1.319,1.318c-0.728,0-1.318-0.59-1.318-1.318C24.092,16.549,24.683,15.958,25.41,15.958z M21.895,15.958
	c0.729,0,1.318,0.59,1.318,1.319c0,0.728-0.59,1.318-1.318,1.318s-1.318-0.59-1.318-1.318
	C20.576,16.549,21.166,15.958,21.895,15.958z M18.379,15.958c0.729,0,1.318,0.59,1.318,1.319c0,0.728-0.59,1.318-1.318,1.318
	s-1.319-0.59-1.319-1.318C17.06,16.549,17.65,15.958,18.379,15.958z M47.772,47.749H16.031V20.573h31.741V47.749z M36.785,28.094
	h9.132v9.132h-9.132V28.094z M35.955,29.119H17.984v-1.025h17.971V29.119z M35.955,30.829H17.984v-1.025h17.971V30.829z
	 M35.955,32.879H17.984v-1.171h17.971V32.879z M27.263,34.734h-9.278v-1.172h9.278V34.734z M41.352,42.451H17.984v-2.197h23.367
	V42.451z M44.794,44.648h-26.81V43.33h26.81V44.648z M45.917,26.531H17.984v-4.102h27.933V26.531z M32,1.5
	C15.155,1.5,1.5,15.156,1.5,32c0,16.845,13.655,30.5,30.5,30.5S62.5,48.845,62.5,32C62.5,15.156,48.845,1.5,32,1.5z M32,61.255
	C15.843,61.255,2.744,48.156,2.744,32C2.744,15.843,15.843,2.745,32,2.745c16.156,0,29.255,13.098,29.255,29.255
	C61.255,48.156,48.156,61.255,32,61.255z"/>
</svg>
